<mxfile host="app.diagrams.net" modified="2024-01-17T10:43:20.696Z" agent="Mozilla/5.0 (X11; Linux x86_64; rv:121.0) Gecko/20100101 Firefox/121.0" etag="BeGVRRuFUepRiF-ZbKjS" version="22.1.20" type="github">
  <diagram name="Page-1" id="Vgqh4QKkc0U2NpkyDIi0">
    <mxGraphModel dx="1218" dy="745" grid="1" gridSize="10" guides="1" tooltips="1" connect="1" arrows="1" fold="1" page="1" pageScale="1" pageWidth="850" pageHeight="1100" math="0" shadow="0">
      <root>
        <mxCell id="0" />
        <mxCell id="1" parent="0" />
        <mxCell id="frdX5cW2FU3e-couroTw-1" value="" style="rounded=0;whiteSpace=wrap;html=1;" parent="1" vertex="1">
          <mxGeometry x="80" y="200" width="280" height="80" as="geometry" />
        </mxCell>
        <mxCell id="frdX5cW2FU3e-couroTw-2" value="Firmware Module, e.g. DAQ" style="text;html=1;strokeColor=none;fillColor=none;align=center;verticalAlign=middle;whiteSpace=wrap;rounded=0;fontSize=16;" parent="1" vertex="1">
          <mxGeometry x="80" y="200" width="280" height="80" as="geometry" />
        </mxCell>
        <mxCell id="frdX5cW2FU3e-couroTw-3" value="" style="rounded=0;whiteSpace=wrap;html=1;" parent="1" vertex="1">
          <mxGeometry x="80" y="400" width="280" height="80" as="geometry" />
        </mxCell>
        <mxCell id="frdX5cW2FU3e-couroTw-4" value="" style="rounded=0;whiteSpace=wrap;html=1;" parent="1" vertex="1">
          <mxGeometry x="80" y="600" width="280" height="80" as="geometry" />
        </mxCell>
        <mxCell id="frdX5cW2FU3e-couroTw-5" value="Peripheral Driver" style="text;html=1;strokeColor=none;fillColor=none;align=center;verticalAlign=middle;whiteSpace=wrap;rounded=0;fontSize=16;" parent="1" vertex="1">
          <mxGeometry x="80" y="400" width="280" height="80" as="geometry" />
        </mxCell>
        <mxCell id="frdX5cW2FU3e-couroTw-6" value="HAL (Hardware Access Layer)" style="text;html=1;strokeColor=none;fillColor=none;align=center;verticalAlign=middle;whiteSpace=wrap;rounded=0;fontSize=16;" parent="1" vertex="1">
          <mxGeometry x="80" y="600" width="280" height="80" as="geometry" />
        </mxCell>
        <mxCell id="frdX5cW2FU3e-couroTw-8" value="" style="shape=flexArrow;endArrow=classic;startArrow=classic;html=1;rounded=0;exitX=0.5;exitY=0;exitDx=0;exitDy=0;entryX=0.5;entryY=1;entryDx=0;entryDy=0;" parent="1" source="frdX5cW2FU3e-couroTw-5" target="frdX5cW2FU3e-couroTw-2" edge="1">
          <mxGeometry width="100" height="100" relative="1" as="geometry">
            <mxPoint x="370" y="510" as="sourcePoint" />
            <mxPoint x="460" y="340" as="targetPoint" />
          </mxGeometry>
        </mxCell>
        <mxCell id="frdX5cW2FU3e-couroTw-9" value="" style="shape=flexArrow;endArrow=classic;startArrow=classic;html=1;rounded=0;exitX=0.5;exitY=0;exitDx=0;exitDy=0;entryX=0.5;entryY=1;entryDx=0;entryDy=0;" parent="1" source="frdX5cW2FU3e-couroTw-6" target="frdX5cW2FU3e-couroTw-5" edge="1">
          <mxGeometry width="100" height="100" relative="1" as="geometry">
            <mxPoint x="360" y="480" as="sourcePoint" />
            <mxPoint x="460" y="380" as="targetPoint" />
          </mxGeometry>
        </mxCell>
        <mxCell id="frdX5cW2FU3e-couroTw-11" value="Driver API" style="text;html=1;strokeColor=none;fillColor=none;align=center;verticalAlign=middle;whiteSpace=wrap;rounded=0;fontSize=14;" parent="1" vertex="1">
          <mxGeometry x="230" y="320" width="80" height="40" as="geometry" />
        </mxCell>
        <mxCell id="frdX5cW2FU3e-couroTw-12" value="HAL API" style="text;html=1;strokeColor=none;fillColor=none;align=center;verticalAlign=middle;whiteSpace=wrap;rounded=0;fontSize=14;" parent="1" vertex="1">
          <mxGeometry x="240" y="520" width="60" height="40" as="geometry" />
        </mxCell>
      </root>
    </mxGraphModel>
  </diagram>
</mxfile>
